<svg xmlns="http://www.w3.org/2000/svg" xmlns:xlink="http://www.w3.org/1999/xlink" viewBox="0 0 500 500"><defs><style>.cls-1{isolation:isolate;}.cls-2{fill:#20242b;}.cls-3{mix-blend-mode:color-dodge;opacity:0.22;fill:url(#radial-gradient);}.cls-10,.cls-4{opacity:0.42;}.cls-5{fill:url(#linear-gradient);}.cls-6{fill:url(#linear-gradient-2);}.cls-7{fill:url(#linear-gradient-3);}.cls-8{fill:url(#linear-gradient-4);}.cls-9{mix-blend-mode:overlay;fill:url(#linear-gradient-5);}.cls-10{fill:url(#linear-gradient-6);}.cls-11{fill:#f5f4f9;}.cls-12{fill:url(#linear-gradient-7);}.cls-13{fill:url(#linear-gradient-8);}.cls-14{fill:url(#linear-gradient-9);}.cls-15{fill:url(#linear-gradient-10);}.cls-16{opacity:0.32;fill:url(#linear-gradient-11);}</style><radialGradient id="radial-gradient" cx="250" cy="250" r="242.12" gradientUnits="userSpaceOnUse"><stop offset="0" stop-color="#c200ce"/><stop offset="1" stop-color="#20242b" stop-opacity="0"/></radialGradient><linearGradient id="linear-gradient" x1="299.86" y1="273.91" x2="374.47" y2="273.91" gradientUnits="userSpaceOnUse"><stop offset="0" stop-color="#8a0bff"/><stop offset="1" stop-color="#2a0056" stop-opacity="0"/></linearGradient><linearGradient id="linear-gradient-2" x1="268.44" y1="222.99" x2="342.57" y2="222.99" xlink:href="#linear-gradient"/><linearGradient id="linear-gradient-3" x1="292.78" y1="262.79" x2="352.78" y2="298.72" xlink:href="#linear-gradient"/><linearGradient id="linear-gradient-4" x1="337.16" y1="359.25" x2="337.16" y2="188.58" xlink:href="#linear-gradient"/><linearGradient id="linear-gradient-5" x1="330.06" y1="279.97" x2="399.33" y2="302.4" xlink:href="#linear-gradient"/><linearGradient id="linear-gradient-6" x1="282.73" y1="280.49" x2="376.8" y2="326.76" xlink:href="#linear-gradient"/><linearGradient id="linear-gradient-7" x1="175.85" y1="285.53" x2="281.88" y2="285.53" gradientUnits="userSpaceOnUse"><stop offset="0" stop-color="#3d0056"/><stop offset="1" stop-color="#ff0ba2"/></linearGradient><linearGradient id="linear-gradient-8" x1="226.98" y1="261.53" x2="289.37" y2="347.26" gradientUnits="userSpaceOnUse"><stop offset="0" stop-color="#3d0056"/><stop offset="1" stop-color="#e33fc5"/></linearGradient><linearGradient id="linear-gradient-9" x1="213.16" y1="365.27" x2="213.16" y2="192.01" gradientUnits="userSpaceOnUse"><stop offset="0" stop-color="#df38ff"/><stop offset="1" stop-color="#ff39ff"/></linearGradient><linearGradient id="linear-gradient-10" x1="155.68" y1="240.2" x2="283.59" y2="298.77" gradientUnits="userSpaceOnUse"><stop offset="0" stop-color="#9e0082"/><stop offset="1" stop-color="#ff39ff" stop-opacity="0"/></linearGradient><linearGradient id="linear-gradient-11" x1="98.91" y1="293.37" x2="192.98" y2="339.65" gradientTransform="translate(366.5 564.15) rotate(180)" xlink:href="#linear-gradient"/></defs><g class="cls-1"><g id="BACKGROUND"><rect class="cls-2" y="-0.17" width="500" height="500"/><rect class="cls-3" x="7.06" y="7.06" width="485.87" height="485.87" rx="242.94"/></g><g id="OBJECTS"><g class="cls-4"><path class="cls-5" d="M372,305.91l-22.14,45.22a14.49,14.49,0,0,1-13,8.12h-37l3.62-7.39q6.47-1.58,12.79-3.77c3.53-1.23,7.13-2.63,10.63-4.22,11.14-5.06,21.41-12.07,26.16-21.57a3.26,3.26,0,0,1,.29-1.32l9.38-47.14-6,0-17.14-.05a78.18,78.18,0,0,0,2.94-22.85c-.26-12.09-3.36-24.86-9.49-40-2.77-6.89-6.18-14.27-10.22-22.31l11.55,22.56,20.47,40,2.77,5.42,14.19,27.74A24.1,24.1,0,0,1,372,305.91Z"/><path class="cls-6" d="M339.61,273.77l-19.25,0-23-44.93L287.25,209l-18.81-36.78H299A25.31,25.31,0,0,1,321.52,186l1.32,2.59c4,8,7.45,15.42,10.22,22.31,6.13,15.17,9.23,27.94,9.49,40A78.18,78.18,0,0,1,339.61,273.77Z"/><path class="cls-7" d="M372,305.91l-22.14,45.22a14.49,14.49,0,0,1-13,8.12h-37l3.62-7.39q6.47-1.58,12.79-3.77c3.53-1.23,7.13-2.63,10.63-4.22,11.14-5.06,21.41-12.07,26.16-21.57a3.26,3.26,0,0,1,.29-1.32l9.38-47.14-6,0-17.14-.05a78.18,78.18,0,0,0,2.94-22.85c-.26-12.09-3.36-24.86-9.49-40-2.77-6.89-6.18-14.27-10.22-22.31l11.55,22.56,20.47,40,2.77,5.42,14.19,27.74A24.1,24.1,0,0,1,372,305.91Z"/><path class="cls-8" d="M372,305.91l-22.14,45.22a14.49,14.49,0,0,1-13,8.12h-37l3.62-7.39q6.47-1.58,12.79-3.77c3.53-1.23,7.13-2.63,10.63-4.22,11.14-5.06,21.41-12.07,26.16-21.57a3.26,3.26,0,0,1,.29-1.32l9.38-47.14-6,0-17.14-.05a78.18,78.18,0,0,0,2.94-22.85c-.26-12.09-3.36-24.86-9.49-40-2.77-6.89-6.18-14.27-10.22-22.31l11.55,22.56,20.47,40,2.77,5.42,14.19,27.74A24.1,24.1,0,0,1,372,305.91Z"/><path class="cls-9" d="M372,305.91l-22.14,45.22a14.49,14.49,0,0,1-13,8.12h-37l3.62-7.39q6.47-1.58,12.79-3.77c3.53-1.23,7.13-2.63,10.63-4.22,11.14-5.06,21.41-12.07,26.16-21.57a3.26,3.26,0,0,1,.29-1.32l9.38-47.14-6,0-17.14-.05a78.18,78.18,0,0,0,2.94-22.85c-.26-12.09-3.36-24.86-9.49-40-2.77-6.89-6.18-14.27-10.22-22.31l11.55,22.56,20.47,40,2.77,5.42,14.19,27.74A24.1,24.1,0,0,1,372,305.91Z"/><path class="cls-10" d="M372,305.91l-22.14,45.22a14.49,14.49,0,0,1-13,8.12H319.37l7.53-15.38c11.14-5.06,21.41-12.07,26.16-21.57a3.26,3.26,0,0,1,.29-1.32l9.38-47.14-6,0a76.1,76.1,0,0,0,.88-17.23l14.19,27.74A24.1,24.1,0,0,1,372,305.91Z"/></g><path class="cls-11" d="M362.73,273.84,353.35,321a3.26,3.26,0,0,0-.29,1.32c-4.75,9.5-15,16.51-26.16,21.57-3.5,1.59-7.1,3-10.63,4.22q-6.31,2.19-12.79,3.77a149.31,149.31,0,0,1-33.84,4.22c-1.18,0-2.36,0-3.54,0-20.2-.22-34.87-2.81-45.52-6.44h0l-.32-.11h0a71.66,71.66,0,0,1-7.67-3.13,32.38,32.38,0,0,1-17.51-35.88c.47-2.22,1-4.66,1.53-7.24,4.84-23,12.15-57.89,12.75-61.46a22.33,22.33,0,0,1,1.16-4.14,25.9,25.9,0,0,1,7-10c5.2-4.78,2.47-9.45-1.33-12.82a36.44,36.44,0,0,0-7.91-5.11l10.47-.11,19.61-.2,48.95-.5,10.13,19.8c-25.2-2.94-33,11-33,11l-15.5,75.77-1.3,6.35a7.8,7.8,0,0,0,3.13,7.94,25,25,0,0,0,7.23,3.43c7,2.1,14.21,1.41,18,1.34a35.6,35.6,0,0,0,12.17-2.3c23.41-9.08,22.17-37.44,22.17-37.44l-28.8-1.57,3.05-19.7,35.78.1,19.25,0,17.14.05Z"/><path class="cls-11" d="M368.33,251.45l-13.47-.28-12.31-.25c-.26-12.09-3.36-24.86-9.49-40l1.33.25,1.43.3C385.63,222.13,368.33,251.45,368.33,251.45Z"/><path class="cls-12" d="M251.33,379.05h30.55L219,256.19,250.46,192h-37a14.48,14.48,0,0,0-13,8.12l-22.14,45.23a24.08,24.08,0,0,0,.19,21.57l50.3,98.34A25.3,25.3,0,0,0,251.33,379.05Z"/><path class="cls-13" d="M251.33,379.05h30.55L219,256.19,250.46,192h-37a14.48,14.48,0,0,0-13,8.12l-22.14,45.23a24.08,24.08,0,0,0,.19,21.57l50.3,98.34A25.3,25.3,0,0,0,251.33,379.05Z"/><path class="cls-14" d="M228.8,365.27c-25.06-49-27-73.85-9.76-109.08L250.46,192h-37a14.48,14.48,0,0,0-13,8.12l-22.14,45.23a24.08,24.08,0,0,0,.19,21.57Z"/><path class="cls-15" d="M228.8,365.27c-25.06-49-27-73.85-9.76-109.08L250.46,192h-37a14.48,14.48,0,0,0-13,8.12l-22.14,45.23a24.08,24.08,0,0,0,.19,21.57Z"/><path class="cls-16" d="M178.5,266.93l14.19,27.75c-1-15.9,2.87-30.39,11.13-47.25L231,192H213.46a14.48,14.48,0,0,0-13,8.12l-22.14,45.23A24.08,24.08,0,0,0,178.5,266.93Z"/></g></g></svg>